<svg xmlns="http://www.w3.org/2000/svg" viewBox="0 0 741.74 676.43"><defs><style>.cls-1{fill:#26489c;}.cls-2{fill:#f7931e;}</style></defs><g id="Capa_2" data-name="Capa 2"><g id="Capa_1-2" data-name="Capa 1"><path class="cls-1" d="M173.29,84.59A301.29,301.29,0,0,1,569,83.84a46.41,46.41,0,0,1,6.42-8,312,312,0,0,0-408.52.7A43.39,43.39,0,0,1,173.29,84.59Z"/><path class="cls-1" d="M159,540.31l7.26-7.27A301.43,301.43,0,0,1,95.61,189.76,48.38,48.38,0,0,1,85,188.43a312.57,312.57,0,0,0,66,344.16C153.61,535.23,156.29,537.79,159,540.31Z"/><path class="cls-1" d="M647.59,189.83a301.43,301.43,0,0,1-71.44,343.91q3.65,3.63,7.27,7.27c3-2.75,5.9-5.54,8.77-8.42a312.59,312.59,0,0,0,66.06-344.1A41.63,41.63,0,0,1,647.59,189.83Z"/><path class="cls-1" d="M513.65,578.25a301.39,301.39,0,0,1-285.09-.5l-7.6,7.59a313,313,0,0,0,300.31.52Z"/><path class="cls-1" d="M670.12,164.42a41.57,41.57,0,0,0-4.41,3.47c-6,6.17-13.31,8.26-21.81,7.35-12.06-1.28-24.17-2.08-36.23-3.41-6.28-.69-11.14,1.33-15.47,5.74-10.08,10.25-20.14,20.54-30.56,30.43-4,3.79-3.68,6.88-.63,10.63,1,1.23,1.83,2.63,2.91,3.79,25.7,27.28,24,65.35,9.52,94.69-4.7,9.52-9.07,18.93-9.71,29.75-.19,3.25-.51,5.37,3.72,5.84,1.6.17,2.95,2.57,4.42,3.95-1.73,1.56-3.58,4.54-5.18,4.41-5.4-.43-6.24,3.17-7.56,6.77-1,2.69-1.74,5.56-3.24,7.94-7.69,12.19-12.58,25.57-17.43,39-3,8.37-9.56,12.73-18.11,13.54-3.72.36-5.32.86-6,5.08a113.53,113.53,0,0,1-19.24,47.48c-2.87,4.12-2,6.53,1.26,9.51,4.47,4.1,8.77,8.4,12.91,12.84,3.77,4.06,7,7.25,13.6,4.61,5.33-2.14,9.38,2.28,13.09,6q33.79,34,67.73,67.79,27.46,27.47,54.91,54.92c9.06,9.09,9.09,14.42.26,23.41-3.8,3.88-7.56,7.81-11.54,11.51-7.14,6.64-12.79,6.56-20.11,0-1-.85-1.82-1.8-2.72-2.7Q564.17,608.4,503.79,548.1c-5.29-5.28-9.11-10.51-6.23-18.58.57-1.61-1.05-4.63-2.51-6.22-4.73-5.19-10-9.88-14.76-15-3.25-3.53-5.55-3.55-9.26-.24-13.69,12.25-29.15,21.92-46.68,27.52C369.16,553.17,318,546.38,272.07,509.36c-6.33-5.11-6.26-5.23-11.9.31-3.88,3.81-7.65,7.72-11.56,11.49-3.5,3.4-6.5,6.32-3.88,12.22,2.16,4.85-1.29,9.13-4.8,12.64q-13.2,13.23-26.43,26.44-48.13,48.13-96.28,96.26c-10.29,10.28-15.3,10.26-25.56.06-3.85-3.83-7.88-7.5-11.47-11.56-5.31-6-5.2-12,.24-17.91,4.11-4.47,8.55-8.63,12.84-12.93q55.58-55.57,111.11-111.19c5.45-5.47,10.62-10.29,19.15-6.28,1.1.52,3.58-.62,4.73-1.71,6.24-6,12.16-12.25,18.41-18.19,2.69-2.56,2.23-4.54.38-7.27-10.15-15-17.1-31.33-19.84-49.28-.51-3.32-1.86-3.82-4.87-4.07-10.73-.87-16.59-6.95-20.44-17.13-6-16-13.62-31.39-20.82-46.91-.68-1.47-3.37-1.93-5-3-2.14-1.46-4.15-3.1-6.22-4.66,1.78-1.41,3.38-3.52,5.39-4.08,3-.82,2.93-2.18,2.82-4.76-.49-11.16-5.06-20.82-9.74-30.72-12.63-26.7-15.51-53.88-.64-80.81,3.36-6.07,8.2-11.34,12.52-16.84,3.45-4.39,4-7.76-.77-12.14-10.32-9.53-20.06-19.7-29.91-29.73-4.33-4.41-9.19-6.44-15.47-5.74-9.51,1.06-19.25.8-28.58,2.64-13.41,2.64-24.51-.28-33.9-10.08l.14.13c-2-2.38-4-4.91-6.18-7.13q-29.43-29.56-59-59c-8.67-8.71-8.77-14.24-.31-22.74q29.43-29.57,59-59c7.76-7.71,13.52-7.76,21.35,0,23.36,23.2,46.55,46.58,69.91,69.78,5.86,5.82,8.42,12.59,7.67,20.76-1.11,12.09-1.84,24.21-3.25,36.26-.82,6.93.91,12.48,5.87,17.31,7.11,6.91,14,14,21.08,21a29.48,29.48,0,0,0,3.7,2.7,20.62,20.62,0,0,0,1.08-4.13c.27-5.42.34-10.85.52-16.28.74-22.31,10.11-39.83,29-52s37.52-24.29,56.45-36.16C296,65,314.14,64.1,332.5,72.89c10.93,5.22,21.6,11,32.15,17,4.43,2.5,8,2.54,12.4,0,10.26-5.82,20.72-11.32,31.29-16.55,19-9.41,37.63-8.34,55.52,3,18.61,11.77,37.07,23.79,55.61,35.68,18.95,12.16,28.25,29.7,29.06,52,.19,5.42.25,10.85.52,16.27a20.82,20.82,0,0,0,1.11,4.14,18.23,18.23,0,0,0,3-2q11.25-11.13,22.4-22.36c4.34-4.34,5.95-9.41,5.25-15.65-1.34-12.06-2-24.18-3.24-36.25-.9-8.93,1.9-16.09,8.29-22.42,23-22.69,45.68-45.64,68.56-68.41,8.67-8.63,14.09-8.58,22.74,0Q706.06,46.09,734.82,75c9.33,9.36,9.25,14.49-.36,24.12q-29.15,29.17-58.3,58.33c-2.21,2.23-4.12,4.75-6.18,7.14ZM381.18,535.78c11.17.42,31.79-3.47,51-12.89,38.81-19,65.51-48,73.66-91.8.77-4.14.5-7.06-2.48-10.35-5.65-6.25-7.46-14.77-2.76-21.2,5.37-7.36,4.55-14.73,4.86-22.5a29.52,29.52,0,0,1,1.38-8.38c1.79-5.18,6.26-7.32,11.25-7.42,4.61-.1,9.14,1.67,10.86,6.38.79,2.17-.4,5.06-.69,7.63-2.08-.78-4.23-1.43-6.23-2.38a42,42,0,0,1-4.51-2.78c-1,1.82-2.38,3.53-2.92,5.47-.5,1.78.1,3.84-.16,5.72-.64,4.66,1.35,5.69,5.83,6a24.5,24.5,0,0,1,11.34,4.28c3.45,2.34,4.59,2.92,4.52-1.93-.13-8.31.1-16.62-.08-24.92-.2-9-5.4-15.58-13.44-17.49-7.66-1.82-15.53,2.17-19,10.73-1.57,3.93-3.33,4.55-7,4.13a162.11,162.11,0,0,0-16.21-.71c-8.93-.09-8.93,0-8.6,8.76.76,19.67-12.75,36.67-31.6,39.78-19.33,3.19-37.7-7.83-43.15-26.63-1.55-5.36-1.24-11.33-1.3-17,0-3-.12-5-3.78-4.93-4.28.09-6.8-1.54-8.18-6.18-1.7-5.7-7.16-6.82-12.47-6.9-5.66-.08-11.49.89-13.42,7-1.46,4.61-3.92,6.24-8.2,6.14-3.75-.08-4,2.13-3.65,5a52.44,52.44,0,0,1,.22,5.75c0,20.86-15.65,37.37-36.2,38.19-21.24.84-38.53-14.41-40.06-35.44-.31-4.28,1.38-11.13-.6-12.35-3.53-2.17-9.14-1-13.89-1.12-3.18,0-6.48-.24-9.51.52-4.75,1.19-6.58-.39-8.34-4.9a15.83,15.83,0,0,0-17.7-9.93,17.13,17.13,0,0,0-14.25,16.79c-.27,8.62-.09,17.26-.06,25.88,0,2.66-.67,5.46,3.83,2.41a30.81,30.81,0,0,1,13.06-4.9c3.86-.49,5-1.61,4.74-5.13-.18-2.55.28-5.19-.24-7.64a7.4,7.4,0,0,0-3.06-4.24c-.59-.38-3,.94-3.67,2.05-1.95,3.43-4.91,5.12-7.39,2-1.29-1.61-.51-6.25,1-8.4,2.86-4.21,7.42-5.56,12.68-4.25,5.73,1.42,8.83,5.25,9.52,10.69.59,4.71-.09,9.58.28,14.34a17.74,17.74,0,0,0,2.25,7.73c6.38,10.25,6.16,17.27-.77,27.23a12,12,0,0,0-2.15,7.63,103.62,103.62,0,0,0,18.79,47.57C283.09,516.5,322.28,535.47,381.18,535.78ZM366.69,136.41c0-9.9-.21-19.81.1-29.7.13-4.5-1.57-6.95-5.5-8.9-10.28-5.1-20.41-10.48-30.54-15.88q-24.58-13.11-48,1.84c-19.1,12.15-38.08,24.48-57.16,36.68C214.26,127.69,206.8,138,204,150.85c-1.88,8.6-1.83,17.68-2.13,26.57-.68,20.43-6.49,38.78-20.33,54.3a51.28,51.28,0,0,0-7.84,11.93c-11,23-8.53,46,1.95,68.25,5.49,11.64,11,23,11.3,36.11,0,1.46,1.6,4.07,2.58,4.13,4.48.26,9.12,1.79,12.6-3.68,4.35-6.85,11.76-10.82,19.58-9.93s10.33-3,12.56-8.49c1.8-4.4,3.85-9,4.33-13.6,1.16-11.06,1.64-22.2,2-33.33.62-16.79,12.74-29.51,29.51-30.55,2.86-.18,5.74-.08,8.62-.14,15.34-.29,24.06-9,25-24.25a38.14,38.14,0,0,1,3.2-13.76c6.4-13.4,17.91-18.57,32.2-17.51,9.13.67,15.21-3.55,20.18-10.37a37.36,37.36,0,0,0,7.3-22.34C366.71,154.93,366.69,145.67,366.69,136.41Zm8.35-.33c0,9.9-.3,19.81.07,29.7.72,19.27,11.9,30.31,30.91,31,19.4.74,31.1,12.43,32,32,.67,14.16,9.59,23.09,23.65,23.61,2.55.09,5.11,0,7.66,0,19.07.62,31.51,13.3,31.7,32.27.07,7-.8,14.23.48,21,1.81,9.58,4.94,19,8.15,28.21.7,2,4.18,4.56,6.21,4.42,10.92-.76,18.76,3.59,25.66,11.82,1.89,2.25,7.45,1.82,11.29,1.69.78,0,1.46-4.16,2.14-6.42,2.93-9.68,5.66-19.41,8.82-29,3.07-9.32,7.78-18.27,9.63-27.79,4.28-22-.28-42-15.27-59.8a71.91,71.91,0,0,1-14.26-27.68c-3.18-12.47-3.42-25.77-4.16-38.76-.93-16.32-7.14-30.28-20.26-39.47-20.88-14.61-42.58-28.12-64.39-41.34-12.79-7.75-26.85-7.87-40.38-1.49-11.81,5.57-23.16,12.1-34.82,18-3.61,1.82-5,4.2-4.93,8.27C375.21,116.28,375,126.18,375,136.08ZM481.3,352.47a97.27,97.27,0,0,1,10.53.07c6.43.71,7.05-5.67,10.42-8.56,1-.85-.18-5.15-1.32-7.37a77.21,77.21,0,0,1-8.52-36.9,174.88,174.88,0,0,0-.46-18.18c-1-10.53-7.29-17.6-17.76-19.71-4.94-1-10.13-.84-15.21-1-13.25-.52-24.94-9.37-28.24-21.94-1.05-4-1.17-8.2-1.59-12.32-1.1-10.64-7-17.73-17.36-20.14a45.16,45.16,0,0,0-12.31-1.14c-9.56.47-16.51-3.93-22.27-10.89a59.71,59.71,0,0,1-4.32-6.32c-1.49-2.36-2.82-2.2-4.08.12-7.23,13.33-18.41,17.7-33.39,17.37-14-.31-21.52,8.58-22.87,23-.21,2.22-.53,4.43-.91,6.63-2.5,14.8-14.11,25-29,25.55-3.51.12-7-.18-10.53.12-13.48,1.13-21.59,9.22-22.53,22.71-.43,6-.29,12.13-.25,18.19a75.48,75.48,0,0,1-7.3,32.39c-4.25,9.23-4.4,9.26,2.33,16a7.85,7.85,0,0,0,4.75,2.24c7.35.24,14.71-.12,22,.19,5.35.22,6.95-4.17,9.15-7.28.69-1-1.91-4.41-3.17-6.62-.77-1.36-2.29-2.43-2.66-3.85a5.22,5.22,0,0,1,.75-4.29,4.85,4.85,0,0,1,4.26-.93,9,9,0,0,1,4.4,3.47c4.37,7.25,9.87,2.78,15.19,1.92,5.8-.92,4.46-5.11,4.69-8.75.08-1.25.13-2.76.83-3.64.89-1.13,2.43-2.42,3.69-2.42a5.18,5.18,0,0,1,3.62,2.45,8.21,8.21,0,0,1,.66,4.64c-.42,4.5,1,7,5.87,8,8.43,1.74,14.9,6.83,20.35,13.43,4.59,5.56,7.85,5.35,12.56-.32a25.34,25.34,0,0,1,39.22.16c4.63,5.57,7.88,5.69,12.56,0,5-6.08,10.94-11.09,18.58-12.81,5.79-1.31,8.3-3.63,7.57-9.61-.37-3,.73-6.51,4.37-5.79,1.8.36,3.34,3.78,4.31,6.1s.14,6.09,1.51,6.92a29.23,29.23,0,0,0,11.64,3.88c1.89.21,4.13-2.29,6.14-3.66a16.19,16.19,0,0,0,2.06-2c2.23-2.22,5.09-3.83,7.27-.88,1,1.33,0,4.58-.85,6.63-.69,1.64-2.71,2.67-3.86,4.19-.65.87-1.36,2.78-1,3.19,2.93,3,4.13,8.25,9.9,7.84C474.25,352.27,477.78,352.47,481.3,352.47ZM590.14,147.93c.92,5.46-2.62,12.86-9.25,19.27-8.25,8-16.29,16.22-24.41,24.35-1.35,1.36-3.34,2.54-3.84,4.17-.56,1.81.23,4.05.44,6.1,1.47-.6,3.3-.84,4.35-1.87,8.91-8.7,18.11-17.16,26.36-26.47s18.1-12,30.07-10.22c10.08,1.5,20.3,2,30.43,3.17,6.52.74,11.54-1.23,16.24-6,22.18-22.53,44.65-44.76,67-67.15,6.68-6.7,6.69-6.84,0-13.58q-27.37-27.5-54.87-54.86c-6.28-6.26-6.85-6.26-13-.14C637.24,47,615,69.47,592.48,91.67c-5.24,5.18-7.14,10.85-6.23,18.09C587.7,121.14,588.61,132.59,590.14,147.93ZM155.54,106.4c.66-5.86-1.91-10.31-6-14.35-22.65-22.5-45.17-45.14-67.79-67.67-5.75-5.72-6.45-5.72-12.31.11Q41.61,52.18,13.91,80c-6.34,6.38-6.33,6.56,0,12.9,22.54,22.62,45.22,45.1,67.65,67.82,4.44,4.5,9.22,6.38,15.4,5.69,11.41-1.27,22.86-2.12,34.26-3.48,9.9-1.18,18,1.45,25,8.87,9.18,9.76,18.87,19.06,28.42,28.47.93.92,2.45,1.26,3.69,1.86.56-1.75,1.95-3.79,1.47-5.2-.66-1.94-2.64-3.48-4.2-5.05-8.32-8.39-16.61-16.81-25.08-25-6.36-6.19-9.38-13.37-8.43-22.36C153.42,131.82,154.4,119.1,155.54,106.4ZM307.82,342.66a29.29,29.29,0,0,0-29.22,29.1c-.12,16.14,13.49,30.07,29.56,30.25,15.81.17,29.85-14,29.76-30A29.74,29.74,0,0,0,307.82,342.66ZM463.1,373c.47-16.11-12.07-29.76-27.91-30.36-17-.65-31.09,12.4-31.37,29-.28,16,13.5,30.24,29.44,30.36C448.79,402.14,462.65,388.68,463.1,373ZM518.88,547.3l-1.62.48c.63,1.06,1,2.64,1.94,3.08a31.35,31.35,0,0,0,8.64,3.08c8.51,1.21,15.83,4.29,21.88,10.65,8.15,8.56,17,16.44,24.89,25.24a112.94,112.94,0,0,1,13,18.7c3.5,6,5.78,12.77,9,19,1.26,2.39,3.74,4.14,5.66,6.18-.24-2.67-.06-5.48-.82-8a143.54,143.54,0,0,0-6.27-18c-2.2-4.85-4.81-9.85-8.43-13.65-12.56-13.18-25.34-26.19-38.69-38.54-3.9-3.61-9.85-5.34-15.15-7C529.06,547.3,524.71,547.71,518.88,547.3Zm-296.22-.2c-3.54.37-6.4,1-9.23.91-9.66-.41-17,3.56-23.47,10.56-9.32,10-19,19.79-29.07,29.06-8.48,7.81-14.45,16.79-17.34,27.92-.88,3.38-2.35,6.6-3.25,10a59,59,0,0,0-1,7.19,48,48,0,0,0,5.55-4.77,15.26,15.26,0,0,0,2.59-5.06c6.3-18.25,17.49-33,31.91-45.6a129.78,129.78,0,0,0,11.49-11.49c6.48-7.32,14.55-10.94,24.17-12,2.88-.32,5.62-2.28,8.29-3.72.65-.34.8-1.6,1.19-2.43Zm397,64a4.71,4.71,0,0,0-.84-1.92q-9.4-9.45-19-18.72c-.4-.38-1.55,0-2.35.06a9.15,9.15,0,0,0,.3,2.55c2.76,6.38,5.94,12.59,8.33,19.09,4.37,11.89,8.05,24,12.57,35.86,1.24,3.25,4.42,5.77,6.72,8.62-.29-3.32-.39-6.67-.91-10C622.7,635,614.87,624.24,619.7,611.08Zm-495.52,8.46c-.75,3.32-1.26,6.12-2,8.86-2.2,8-4.51,15.91-6.72,23.88a16.1,16.1,0,0,0-.26,3.05c1.19-.24,3-.08,3.48-.8a39.23,39.23,0,0,0,5.18-8.9c5.18-14.35,10-28.82,15.07-43.22,1.48-4.24,3.19-8.39,4.79-12.58l-10.76,9.1a8.47,8.47,0,0,0-.67.67C126.88,605.34,118.23,609.71,124.18,619.54ZM518.71,419.59a12.43,12.43,0,0,0,12.33-11c.47-6.37-5.08-12.55-11.54-12.84-5.83-.27-11.86,5.15-12.32,11.07C506.68,413.16,512.25,419.33,518.71,419.59Zm-295.94,0c6.49-.14,12.13-6.1,11.82-12.48-.3-6-6-11.22-12.13-11.12a12,12,0,0,0-11.77,12.39A12.31,12.31,0,0,0,222.77,419.59ZM228.2,533.2v.33c-7.91.42-15.85,1.48-23.71,1.07-7.12-.38-11.13,3.54-15.19,8a9.67,9.67,0,0,0-1.16,2.54,12.66,12.66,0,0,0,3.26,0c6.32-1.75,12.51-4.15,18.92-5.3,7.47-1.33,15.13-1.5,22.68-2.44,1.1-.14,2-1.71,3-2.62a12.09,12.09,0,0,0-3.11-1.52A28.8,28.8,0,0,0,228.2,533.2Zm287.1.51v-.15a10.65,10.65,0,0,0-2.83-.27c-2.3.41-4.56,1.05-6.84,1.59,2,1,3.92,2.46,6,2.87,3.4.66,7,.43,10.41.92,7.5,1.05,15,2.18,22.43,3.56,3.08.57,6,1.87,9,2.84-2.44-2.84-4.55-6.09-7.43-8.37-1.75-1.39-4.67-1.62-7.1-1.79C531.13,534.37,523.22,534.09,515.3,533.71Zm119.39,96.36,2.82-1.18c-1.78-2.2-3.43-4.53-5.4-6.54A44.47,44.47,0,0,0,627,618.3a35.56,35.56,0,0,0,.62,6.23q4.71,16.94,9.72,33.78c.69,2.32,2.07,4.44,3.13,6.65a59.23,59.23,0,0,0-.54-7.2c-.6-3.11-1.85-6.1-2.4-9.22C636.4,642.41,635.6,636.23,634.69,630.07ZM259.46,497.17c-1.14-1.05-2-2.43-3-2.61a5.13,5.13,0,0,0-3.9,1c-6.14,5.91-12.2,11.92-18,18.13-.93,1-.61,3.14-.86,4.75,1.83-.06,4.35.63,5.37-.31,6.27-5.77,12.21-11.9,18.21-17.95A25.55,25.55,0,0,0,259.46,497.17ZM484.7,492c-.41,3.77-1.53,6.53-.68,7.46,6,6.5,12.29,12.72,18.72,18.78a5,5,0,0,0,4.65.69c2.64-1.48,1.7-3.56-.13-5.38-6-6-12-12.07-18.1-18.08C488.38,494.71,487.4,494.11,484.7,492Zm52.08,73.49-2.11.62a24.39,24.39,0,0,0,1.63,2q17.19,17.21,34.45,34.36a17.36,17.36,0,0,0,3.25,2c-.41-1.4-.4-3.22-1.3-4.14-10.89-11.13-21.9-22.13-32.93-33.12A13.45,13.45,0,0,0,536.78,565.51ZM115.31,620.89c-.26-.41-1-2.21-1.47-2.15-2.71.29-8.21,8.5-8.32,11.1-.28,6.52-.66,13.06-1.51,19.53-.49,3.72-2.07,7.29-3,11-.15.64.65,1.52,1,2.28.62-.56,1.61-1,1.81-1.7C107.65,647.88,111.35,634.82,115.31,620.89Zm91.08-55.06c-2,.56-3.22.53-3.81,1.11q-16.9,16.69-33.65,33.55a7.19,7.19,0,0,0-1,2.36c1.07-.18,2.52,0,3.15-.59q16.6-16.37,33-32.92A27.28,27.28,0,0,0,206.39,565.83ZM97.75,635.35a11.84,11.84,0,0,0-2.37,1.2c-2.7,2.63-5.62,5.11-7.9,8.08-1.09,1.41-1.86,4.21-1.17,5.58,1,2.09,3.46,3.48,5.29,5.17a44.43,44.43,0,0,0,3.3-6c1.28-3.52,2.22-7.17,3.15-10.81C98.28,637.63,97.88,636.58,97.75,635.35Zm546.72-1.11c-.5,2.07-1,3-.85,3.74,1.06,4.27,2.09,8.57,3.55,12.71.59,1.69,2.23,3,3.39,4.49,1.88-2.66,5.94-6.59,5.26-7.75C653.2,642.93,649.06,639.31,644.47,634.24ZM215.84,525.94c0-.17,0-.34.08-.5,2.55-.12,5.12-.1,7.64-.43.73-.1,2-1.39,1.9-1.79-1.43-4.79-8.53-7.74-11.81-4.86a63.42,63.42,0,0,0-5.57,6.31Zm309.62-.56v.16c1.28,0,2.56.06,3.82,0,1.43-.1,2.85-.34,4.26-.52-.81-1.25-1.54-2.57-2.46-3.74-.78-1-1.64-2.26-2.73-2.62-2.09-.68-4.85-1.74-6.45-.92-2.38,1.21-4,3.92-5.93,6,2.53.55,5,1.13,7.58,1.64A9.36,9.36,0,0,0,525.46,525.38Zm19.79-155,.62,3.62a52.33,52.33,0,0,0,3.15-4.43,11.3,11.3,0,0,0,1.73-4.41c.1-1.28-.79-2.64-1.24-4-1.42.84-3.36,1.38-4.11,2.62S545.25,366.92,545.25,370.37ZM196.5,366.28c-.2-.43-1.19-2.81-2.44-5-.14-.27-2.52.34-2.51.4a67.77,67.77,0,0,0,1.17,7.9,11.6,11.6,0,0,0,1.72,3.4c.29.46.91.7,1.39,1.05a5.85,5.85,0,0,0,.63-1.61C196.56,371.11,196.5,369.83,196.5,366.28Zm-59,268.78.3.36.13-.55Z"/><path class="cls-1" d="M388.16,389.35c0,3.5.15,7,0,10.52-.49,9.64-7.95,16.93-17.21,17A17.32,17.32,0,0,1,353.63,400c-.28-7.32-.06-14.66-.07-22,0-3-.06-6.14,3.94-6.36,4.6-.26,4.83,3.36,4.9,6.58.15,6.37-.07,12.76.1,19.13.17,6.81,3.27,10.61,8.31,10.65s8.23-3.78,8.42-10.54c.17-5.74-.1-11.49.09-17.22.13-3.58-1.07-8.67,4.81-8.53,5.3.13,3.84,4.84,4,8.1S388.17,386.16,388.16,389.35Z"/><path class="cls-2" d="M448.71,446.59C448.49,455,442,461.11,433.22,461a15.1,15.1,0,0,1-15.4-15.83,15.5,15.5,0,0,1,16.28-15.07C443.08,430.5,449,437.11,448.71,446.59Z"/><path class="cls-2" d="M308.68,430.12a15.49,15.49,0,0,1,15.22,16.13c-.39,8.62-6.81,14.75-15.49,14.78-9.12,0-15.56-6.46-15.39-15.5C293.19,436.25,299.62,429.93,308.68,430.12Z"/><path class="cls-1" d="M370.34,456.13a47,47,0,0,1-25.66-6.29c-1.65-.95-3.72-1.89-4.53-3.4-1.06-2-1.06-4.53-1.51-6.83,2.27-.05,5.28-1.07,6.68,0,7.78,6,16.57,7.7,26.07,7.66,8.84,0,17.13-1.66,24.24-7.26,2.51-2,5.56-3.38,7.22-.19.86,1.66-.39,5.82-2.06,7.17C392,454.15,381.54,456.58,370.34,456.13Z"/><path class="cls-1" d="M308.63,288.94a30.91,30.91,0,0,1,22.69,7.56c1.72,1.45,3.25,5.32,2.49,7-1.53,3.43-4.64,1.92-7.16.13-12.39-8.79-24.67-8.82-37.14.09-1.53,1.1-5.32,1.22-6.56.11-2.69-2.39-1.14-5.14,1.45-7.15C291.74,291,299.92,288,308.63,288.94Z"/><path class="cls-1" d="M431.29,288.93c8.5-.81,16.09,2.13,23,7.07,2.72,1.93,5.41,4.33,2.79,7.82-2.22,3-5,1.53-7.51-.32-12.05-8.76-24.19-8.47-36.27,0-2.51,1.75-5.27,3.48-7.41.33-2.27-3.36,0-5.85,2.86-7.92C415.45,291,422.76,288.35,431.29,288.93Z"/><path class="cls-1" d="M666.19,102a11.64,11.64,0,0,1,11.33,11.78c0,6.6-6,12.39-12.31,12a12.51,12.51,0,0,1-11.52-12A12,12,0,0,1,666.19,102Zm3.26,11.48c-2-1.15-3.12-2.27-4.3-2.31-.78,0-2.46,1.8-2.29,2.22.5,1.21,1.59,2.77,2.68,3C666.4,116.52,667.61,114.9,669.45,113.46Z"/><path class="cls-1" d="M679.44,58.12a12,12,0,0,1-12.1,12.13,12.33,12.33,0,0,1-11.61-11.78,11.86,11.86,0,1,1,23.71-.35Zm-11.6-3.79c-1.43,1.88-3,3-2.9,4.07s1.87,2,3.09,2.38c.44.14,2.12-1.5,2.05-2.23C670,57.35,668.92,56.23,667.84,54.33Z"/><path class="cls-1" d="M694.59,73.23a12.07,12.07,0,0,1,11.69,12.55c-.42,6.07-6.14,11.4-12.14,11.3-6.36-.11-12.07-6.32-11.67-12.73A11.87,11.87,0,0,1,694.59,73.23Zm3.68,11c-2.2-.9-3.46-1.85-4.6-1.73-.84.09-2.32,2.08-2.14,2.38.71,1.14,1.9,2.54,3,2.66C695.42,87.65,696.47,85.94,698.27,84.25Z"/><path class="cls-1" d="M627.23,87.06a11.69,11.69,0,0,1,12.16-11.93A12.27,12.27,0,0,1,650.9,87c0,6.42-6,12.31-12.34,12A12,12,0,0,1,627.23,87.06Zm11.34,3.76c1.43-1.77,2.7-2.71,3-3.87.16-.71-1.43-2.61-1.9-2.5-1.27.29-2.93,1.14-3.33,2.2C636,87.42,637.43,88.86,638.57,90.82Z"/><path class="cls-1" d="M75.93,102a11.88,11.88,0,0,1,12,12.16A12.46,12.46,0,0,1,76.14,125.8C69.8,126,64,120,64.21,113.37A11.64,11.64,0,0,1,75.93,102Zm4.23,11.86c-1.86-1.32-3.06-2.82-4.1-2.71s-2.06,1.82-2.41,3c-.15.53,1.53,2.29,2.18,2.19C77.09,116.14,78.22,115,80.16,113.83Z"/><path class="cls-1" d="M62.29,58.12A11.86,11.86,0,1,1,86,58.47,12.33,12.33,0,0,1,74.39,70.25,12,12,0,0,1,62.29,58.12ZM78,58.41c-1.83-1.33-3-2.79-4.07-2.77-.84,0-2,1.84-2.3,3-.14.51,1.51,2.2,2.16,2.11C75.07,60.61,76.18,59.53,78,58.41Z"/><path class="cls-1" d="M35.44,84.72a11.91,11.91,0,0,1,23.82.66C59,91.55,53.48,97,47.48,97.08A12.43,12.43,0,0,1,35.44,84.72Zm12.15,4.21c1.22-2,2.67-3.36,2.43-4.27s-2-1.91-3.27-2.19c-.48-.12-2.07,1.71-1.94,2.43C45,86.08,46.24,87.08,47.59,88.93Z"/><path class="cls-1" d="M102.36,75.12a11.52,11.52,0,0,1,12,11A11.88,11.88,0,0,1,103.16,99c-6.33.27-12.35-5.63-12.32-12.06A12.26,12.26,0,0,1,102.36,75.12ZM101.72,90l2.46,1.43c.53-1.4,1.63-2.9,1.42-4.18s-1.7-2.28-2.9-2.89c-.38-.2-2.27,1.26-2.33,2.05C100.28,87.53,101.22,88.76,101.72,90Z"/><path class="cls-1" d="M307.77,364a8,8,0,0,1,8.58,8.16,8.17,8.17,0,0,1-7.76,8.11,8.65,8.65,0,0,1-8.65-8.31A8.14,8.14,0,0,1,307.77,364Z"/><path class="cls-1" d="M433.36,364a8.11,8.11,0,0,1,8.4,7.39,8.6,8.6,0,0,1-8.05,8.91,8.29,8.29,0,0,1-8.33-7.57A8,8,0,0,1,433.36,364Z"/></g></g></svg>